<mxfile modified="2024-05-23T15:18:36.721Z" host="Electron" agent="Mozilla/5.0 (Windows NT 10.0; Win64; x64) AppleWebKit/537.36 (KHTML, like Gecko) draw.io/21.5.1 Chrome/112.0.5615.204 Electron/24.6.0 Safari/537.36" etag="jNy1wPgIFRvI04C3T4E7" version="21.5.1" type="device">
  <diagram id="Ht1M8jgEwFfnCIfOTk4-" name="Page-1">
    <mxGraphModel dx="1434" dy="844" grid="1" gridSize="10" guides="1" tooltips="1" connect="1" arrows="1" fold="1" page="1" pageScale="1" pageWidth="1169" pageHeight="827" math="0" shadow="0">
      <root>
        <mxCell id="0" />
        <mxCell id="1" parent="0" />
        <mxCell id="50enxC9HLnrfEUEeyhwm-23" value="&lt;font style=&quot;font-size: 12px;&quot;&gt;Trigger&lt;/font&gt;" style="edgeStyle=orthogonalEdgeStyle;rounded=0;orthogonalLoop=1;jettySize=auto;html=1;endArrow=classic;endFill=1;spacingBottom=0;spacingRight=0;labelPosition=center;verticalLabelPosition=middle;align=center;verticalAlign=middle;" parent="1" source="UEzPUAAOIrF-is8g5C7q-116" target="50enxC9HLnrfEUEeyhwm-22" edge="1">
          <mxGeometry relative="1" as="geometry">
            <mxPoint as="offset" />
          </mxGeometry>
        </mxCell>
        <mxCell id="UEzPUAAOIrF-is8g5C7q-116" value="&lt;b&gt;S3 Bucket&lt;/b&gt;&lt;b&gt;&amp;nbsp;&lt;br&gt;&lt;/b&gt;" style="outlineConnect=0;fontColor=#232F3E;gradientColor=#60A337;gradientDirection=north;fillColor=#277116;strokeColor=#ffffff;dashed=0;verticalLabelPosition=bottom;verticalAlign=top;align=center;html=1;fontSize=12;fontStyle=0;aspect=fixed;shape=mxgraph.aws4.resourceIcon;resIcon=mxgraph.aws4.s3;labelBackgroundColor=#ffffff;labelPosition=center;spacingLeft=5;" parent="1" vertex="1">
          <mxGeometry x="240" y="240" width="70" height="70" as="geometry" />
        </mxCell>
        <mxCell id="50enxC9HLnrfEUEeyhwm-14" value="Production&lt;br&gt;Record.prd" style="whiteSpace=wrap;html=1;shape=mxgraph.basic.document" parent="1" vertex="1">
          <mxGeometry x="130" y="110" width="70" height="80" as="geometry" />
        </mxCell>
        <mxCell id="50enxC9HLnrfEUEeyhwm-32" value="Create" style="rounded=0;orthogonalLoop=1;jettySize=auto;html=1;" parent="1" target="50enxC9HLnrfEUEeyhwm-34" edge="1">
          <mxGeometry relative="1" as="geometry">
            <mxPoint x="720" y="146" as="targetPoint" />
            <mxPoint x="539.9992038397671" y="254.0004776961398" as="sourcePoint" />
          </mxGeometry>
        </mxCell>
        <mxCell id="1whrLOmoaJ3RaqAwTMCr-1" value="&amp;nbsp;Create&amp;nbsp;" style="edgeStyle=orthogonalEdgeStyle;rounded=0;orthogonalLoop=1;jettySize=auto;html=1;spacingLeft=0;spacing=2;" parent="1" source="50enxC9HLnrfEUEeyhwm-22" target="50enxC9HLnrfEUEeyhwm-95" edge="1">
          <mxGeometry relative="1" as="geometry" />
        </mxCell>
        <mxCell id="50enxC9HLnrfEUEeyhwm-22" value="&lt;div style=&quot;&quot;&gt;&lt;b style=&quot;background-color: initial;&quot;&gt;Lambda Function&lt;/b&gt;&lt;/div&gt;&lt;div style=&quot;text-align: justify;&quot;&gt;&lt;br&gt;&lt;/div&gt;" style="sketch=0;outlineConnect=0;fontColor=#232F3E;gradientColor=none;fillColor=#D45B07;strokeColor=none;dashed=0;verticalLabelPosition=bottom;verticalAlign=top;align=center;html=1;fontSize=12;fontStyle=0;aspect=fixed;pointerEvents=1;shape=mxgraph.aws4.lambda_function;labelPosition=center;spacingRight=5;" parent="1" vertex="1">
          <mxGeometry x="480" y="240" width="70" height="70" as="geometry" />
        </mxCell>
        <mxCell id="50enxC9HLnrfEUEeyhwm-97" value="Attached" style="edgeStyle=orthogonalEdgeStyle;rounded=0;orthogonalLoop=1;jettySize=auto;html=1;endArrow=none;endFill=0;dashed=1;" parent="1" source="50enxC9HLnrfEUEeyhwm-34" target="50enxC9HLnrfEUEeyhwm-95" edge="1">
          <mxGeometry relative="1" as="geometry" />
        </mxCell>
        <mxCell id="50enxC9HLnrfEUEeyhwm-34" value="&lt;b&gt;Thing&lt;br&gt;&lt;/b&gt;" style="sketch=0;outlineConnect=0;fontColor=#232F3E;gradientColor=none;fillColor=#3F8624;strokeColor=none;dashed=0;verticalLabelPosition=middle;verticalAlign=middle;align=left;html=1;fontSize=12;fontStyle=0;aspect=fixed;pointerEvents=1;shape=mxgraph.aws4.hardware_board;labelPosition=right;spacingLeft=5;" parent="1" vertex="1">
          <mxGeometry x="730" y="90" width="70" height="70" as="geometry" />
        </mxCell>
        <mxCell id="50enxC9HLnrfEUEeyhwm-95" value="&lt;b&gt;Certificate&lt;br&gt;&lt;/b&gt;" style="sketch=0;outlineConnect=0;fontColor=#232F3E;gradientColor=none;fillColor=#3F8624;strokeColor=none;dashed=0;verticalLabelPosition=middle;verticalAlign=middle;align=left;html=1;fontSize=12;fontStyle=0;aspect=fixed;pointerEvents=1;shape=mxgraph.aws4.certificate_manager;labelPosition=right;spacingLeft=5;" parent="1" vertex="1">
          <mxGeometry x="735.5" y="236" width="59" height="78" as="geometry" />
        </mxCell>
        <mxCell id="50enxC9HLnrfEUEeyhwm-98" value="" style="shape=curlyBracket;whiteSpace=wrap;html=1;rounded=1;labelPosition=left;verticalLabelPosition=middle;align=right;verticalAlign=middle;rotation=-90;textDirection=ltr;" parent="1" vertex="1">
          <mxGeometry x="371.25" y="176.25" width="46" height="392.5" as="geometry" />
        </mxCell>
        <mxCell id="1whrLOmoaJ3RaqAwTMCr-4" style="edgeStyle=orthogonalEdgeStyle;rounded=0;orthogonalLoop=1;jettySize=auto;html=1;entryX=0;entryY=0.5;entryDx=0;entryDy=0;endArrow=none;endFill=0;dashed=1;" parent="1" source="50enxC9HLnrfEUEeyhwm-104" target="1whrLOmoaJ3RaqAwTMCr-3" edge="1">
          <mxGeometry relative="1" as="geometry" />
        </mxCell>
        <mxCell id="50enxC9HLnrfEUEeyhwm-104" value="" style="shape=image;verticalLabelPosition=bottom;labelBackgroundColor=default;verticalAlign=top;aspect=fixed;imageAspect=0;image=https://upload.wikimedia.org/wikipedia/commons/thumb/0/04/Terraform_Logo.svg/512px-Terraform_Logo.svg.png;" parent="1" vertex="1">
          <mxGeometry x="239.99999999999997" y="414" width="129.04" height="31" as="geometry" />
        </mxCell>
        <mxCell id="1whrLOmoaJ3RaqAwTMCr-2" value="" style="curved=1;endArrow=classic;html=1;rounded=0;exitX=1;exitY=0.5;exitDx=0;exitDy=0;exitPerimeter=0;" parent="1" source="50enxC9HLnrfEUEeyhwm-14" target="UEzPUAAOIrF-is8g5C7q-116" edge="1">
          <mxGeometry width="50" height="50" relative="1" as="geometry">
            <mxPoint x="210" y="320" as="sourcePoint" />
            <mxPoint x="270" y="220" as="targetPoint" />
            <Array as="points">
              <mxPoint x="260" y="150" />
            </Array>
          </mxGeometry>
        </mxCell>
        <mxCell id="1whrLOmoaJ3RaqAwTMCr-3" value="main.tf&lt;br&gt;&amp;nbsp; &amp;nbsp; runtimescript.py" style="text;html=1;strokeColor=default;fillColor=none;align=left;verticalAlign=middle;whiteSpace=wrap;rounded=0;fontStyle=1;spacingLeft=10;" parent="1" vertex="1">
          <mxGeometry x="400" y="399.5" width="150" height="60" as="geometry" />
        </mxCell>
      </root>
    </mxGraphModel>
  </diagram>
</mxfile>
